<?xml version="1.0" encoding="UTF-8"?>
<svg id="stamp" data-name="stamp" xmlns="http://www.w3.org/2000/svg" version="1.1" viewBox="0 0 1000 1000">
  <path fill="currentColor" d="M989.11,530.88l-44.16,54.2-8.98,11.1c-8.82,10.77-12.57,24.82-10.37,38.53l13.39,83.18c3.67,22.86-9.22,45.06-30.86,53.38l-45.14,17.22-33.47,12.73c-13.06,4.98-23.35,15.26-28.25,28.24l-30.04,78.69c-8.25,21.63-30.53,34.53-53.39,30.86l-83.1-13.39c-13.8-2.2-27.84,1.55-38.61,10.29l-65.31,53.14c-8.98,7.26-19.92,10.94-30.78,10.94s-21.88-3.67-30.86-10.94l-65.31-53.14c-10.78-8.73-24.82-12.49-38.61-10.29l-83.1,13.39c-22.86,3.67-45.14-9.22-53.39-30.86l-29.96-78.69c-4.9-12.98-15.18-23.26-28.25-28.24l-33.47-12.73-45.23-17.22c-21.63-8.24-34.45-30.61-30.78-53.47l13.39-83.1c2.2-13.71-1.55-27.75-10.37-38.53l-8.98-11.1-44.16-54.2c-14.61-17.96-14.61-43.75,0-61.71l53.14-65.14c8.82-10.86,12.57-24.9,10.37-38.61l-13.39-83.18c-3.67-22.86,9.14-45.14,30.78-53.39l78.7-29.96c13.06-4.98,23.35-15.26,28.25-28.24l29.96-78.69c8.24-21.63,30.53-34.53,53.39-30.86l83.1,13.39c13.8,2.2,27.84-1.55,38.61-10.37l65.31-53.14C478.16,3.72,489.1.05,500.04.05s21.8,3.67,30.78,10.94l65.31,53.14c10.78,8.82,24.82,12.57,38.61,10.37l83.1-13.39c22.86-3.67,45.14,9.22,53.39,30.86l30.04,78.69c4.9,12.98,15.18,23.26,28.25,28.24l78.61,29.96c21.63,8.24,34.53,30.53,30.86,53.3l-13.39,83.26c-2.2,13.71,1.55,27.75,10.37,38.53l53.06,65.22c14.61,17.96,14.61,43.75.08,61.71Z"/>
</svg>